<mxfile host="app.diagrams.net" modified="2021-12-08T20:39:33.819Z" agent="5.0 (Windows NT 10.0; Win64; x64) AppleWebKit/537.36 (KHTML, like Gecko) Chrome/93.0.4577.63 Safari/537.36" etag="C9PCSGtl_waZbRKZrd5E" version="15.9.4" type="github">
  <diagram id="C5RBs43oDa-KdzZeNtuy" name="Page-1">
    <mxGraphModel dx="942" dy="582" grid="1" gridSize="10" guides="1" tooltips="1" connect="1" arrows="1" fold="1" page="1" pageScale="1" pageWidth="827" pageHeight="1169" math="0" shadow="0">
      <root>
        <mxCell id="WIyWlLk6GJQsqaUBKTNV-0" />
        <mxCell id="WIyWlLk6GJQsqaUBKTNV-1" parent="WIyWlLk6GJQsqaUBKTNV-0" />
        <mxCell id="QZA1cioCUstiTLC9h7FH-2" value="" style="edgeStyle=orthogonalEdgeStyle;rounded=0;orthogonalLoop=1;jettySize=auto;html=1;" edge="1" parent="WIyWlLk6GJQsqaUBKTNV-1" source="QZA1cioCUstiTLC9h7FH-0" target="QZA1cioCUstiTLC9h7FH-1">
          <mxGeometry relative="1" as="geometry" />
        </mxCell>
        <mxCell id="QZA1cioCUstiTLC9h7FH-0" value="" style="rounded=0;whiteSpace=wrap;html=1;" vertex="1" parent="WIyWlLk6GJQsqaUBKTNV-1">
          <mxGeometry x="360" y="130" width="120" height="60" as="geometry" />
        </mxCell>
        <mxCell id="QZA1cioCUstiTLC9h7FH-4" value="" style="edgeStyle=orthogonalEdgeStyle;rounded=0;orthogonalLoop=1;jettySize=auto;html=1;" edge="1" parent="WIyWlLk6GJQsqaUBKTNV-1" source="QZA1cioCUstiTLC9h7FH-1" target="QZA1cioCUstiTLC9h7FH-3">
          <mxGeometry relative="1" as="geometry" />
        </mxCell>
        <mxCell id="QZA1cioCUstiTLC9h7FH-6" value="" style="edgeStyle=orthogonalEdgeStyle;rounded=0;orthogonalLoop=1;jettySize=auto;html=1;" edge="1" parent="WIyWlLk6GJQsqaUBKTNV-1" source="QZA1cioCUstiTLC9h7FH-1" target="QZA1cioCUstiTLC9h7FH-5">
          <mxGeometry relative="1" as="geometry" />
        </mxCell>
        <mxCell id="QZA1cioCUstiTLC9h7FH-1" value="" style="rhombus;whiteSpace=wrap;html=1;rounded=0;" vertex="1" parent="WIyWlLk6GJQsqaUBKTNV-1">
          <mxGeometry x="310" y="260" width="220" height="100" as="geometry" />
        </mxCell>
        <mxCell id="QZA1cioCUstiTLC9h7FH-3" value="" style="rounded=0;whiteSpace=wrap;html=1;" vertex="1" parent="WIyWlLk6GJQsqaUBKTNV-1">
          <mxGeometry x="60" y="380" width="120" height="60" as="geometry" />
        </mxCell>
        <mxCell id="QZA1cioCUstiTLC9h7FH-5" value="" style="whiteSpace=wrap;html=1;rounded=0;" vertex="1" parent="WIyWlLk6GJQsqaUBKTNV-1">
          <mxGeometry x="620" y="390" width="120" height="60" as="geometry" />
        </mxCell>
        <mxCell id="QZA1cioCUstiTLC9h7FH-13" value="" style="edgeStyle=orthogonalEdgeStyle;rounded=0;orthogonalLoop=1;jettySize=auto;html=1;" edge="1" parent="WIyWlLk6GJQsqaUBKTNV-1" source="QZA1cioCUstiTLC9h7FH-11" target="QZA1cioCUstiTLC9h7FH-12">
          <mxGeometry relative="1" as="geometry" />
        </mxCell>
        <mxCell id="QZA1cioCUstiTLC9h7FH-11" value="Welcome" style="rounded=0;whiteSpace=wrap;html=1;" vertex="1" parent="WIyWlLk6GJQsqaUBKTNV-1">
          <mxGeometry x="1200" y="1250" width="200" height="60" as="geometry" />
        </mxCell>
        <mxCell id="QZA1cioCUstiTLC9h7FH-15" value="" style="edgeStyle=orthogonalEdgeStyle;rounded=0;orthogonalLoop=1;jettySize=auto;html=1;" edge="1" parent="WIyWlLk6GJQsqaUBKTNV-1" source="QZA1cioCUstiTLC9h7FH-12" target="QZA1cioCUstiTLC9h7FH-14">
          <mxGeometry relative="1" as="geometry" />
        </mxCell>
        <mxCell id="QZA1cioCUstiTLC9h7FH-18" value="" style="edgeStyle=orthogonalEdgeStyle;rounded=0;orthogonalLoop=1;jettySize=auto;html=1;" edge="1" parent="WIyWlLk6GJQsqaUBKTNV-1" source="QZA1cioCUstiTLC9h7FH-12" target="QZA1cioCUstiTLC9h7FH-17">
          <mxGeometry relative="1" as="geometry" />
        </mxCell>
        <mxCell id="QZA1cioCUstiTLC9h7FH-12" value="left or right" style="rhombus;whiteSpace=wrap;html=1;rounded=0;" vertex="1" parent="WIyWlLk6GJQsqaUBKTNV-1">
          <mxGeometry x="1260" y="1380" width="80" height="80" as="geometry" />
        </mxCell>
        <mxCell id="QZA1cioCUstiTLC9h7FH-14" value="Game over" style="whiteSpace=wrap;html=1;rounded=0;" vertex="1" parent="WIyWlLk6GJQsqaUBKTNV-1">
          <mxGeometry x="1400" y="1390" width="120" height="60" as="geometry" />
        </mxCell>
        <mxCell id="QZA1cioCUstiTLC9h7FH-16" value="Right" style="text;html=1;align=center;verticalAlign=middle;resizable=0;points=[];autosize=1;strokeColor=none;fillColor=none;" vertex="1" parent="WIyWlLk6GJQsqaUBKTNV-1">
          <mxGeometry x="1340" y="1390" width="40" height="20" as="geometry" />
        </mxCell>
        <mxCell id="QZA1cioCUstiTLC9h7FH-24" value="" style="edgeStyle=orthogonalEdgeStyle;rounded=0;orthogonalLoop=1;jettySize=auto;html=1;" edge="1" parent="WIyWlLk6GJQsqaUBKTNV-1" source="QZA1cioCUstiTLC9h7FH-17" target="QZA1cioCUstiTLC9h7FH-23">
          <mxGeometry relative="1" as="geometry" />
        </mxCell>
        <mxCell id="QZA1cioCUstiTLC9h7FH-28" value="" style="edgeStyle=orthogonalEdgeStyle;rounded=0;orthogonalLoop=1;jettySize=auto;html=1;" edge="1" parent="WIyWlLk6GJQsqaUBKTNV-1" source="QZA1cioCUstiTLC9h7FH-17" target="QZA1cioCUstiTLC9h7FH-27">
          <mxGeometry relative="1" as="geometry" />
        </mxCell>
        <mxCell id="QZA1cioCUstiTLC9h7FH-17" value="swim or wait" style="rhombus;whiteSpace=wrap;html=1;rounded=0;" vertex="1" parent="WIyWlLk6GJQsqaUBKTNV-1">
          <mxGeometry x="1260" y="1540" width="80" height="80" as="geometry" />
        </mxCell>
        <mxCell id="QZA1cioCUstiTLC9h7FH-23" value="Game over" style="whiteSpace=wrap;html=1;rounded=0;" vertex="1" parent="WIyWlLk6GJQsqaUBKTNV-1">
          <mxGeometry x="1400" y="1550" width="120" height="60" as="geometry" />
        </mxCell>
        <mxCell id="QZA1cioCUstiTLC9h7FH-25" value="Swim" style="text;html=1;align=center;verticalAlign=middle;resizable=0;points=[];autosize=1;strokeColor=none;fillColor=none;" vertex="1" parent="WIyWlLk6GJQsqaUBKTNV-1">
          <mxGeometry x="1335" y="1550" width="50" height="20" as="geometry" />
        </mxCell>
        <mxCell id="QZA1cioCUstiTLC9h7FH-26" value="left" style="text;html=1;align=center;verticalAlign=middle;resizable=0;points=[];autosize=1;strokeColor=none;fillColor=none;" vertex="1" parent="WIyWlLk6GJQsqaUBKTNV-1">
          <mxGeometry x="1305" y="1490" width="30" height="20" as="geometry" />
        </mxCell>
        <mxCell id="QZA1cioCUstiTLC9h7FH-31" value="" style="edgeStyle=orthogonalEdgeStyle;rounded=0;orthogonalLoop=1;jettySize=auto;html=1;" edge="1" parent="WIyWlLk6GJQsqaUBKTNV-1" source="QZA1cioCUstiTLC9h7FH-27" target="QZA1cioCUstiTLC9h7FH-30">
          <mxGeometry relative="1" as="geometry" />
        </mxCell>
        <mxCell id="QZA1cioCUstiTLC9h7FH-34" value="" style="edgeStyle=orthogonalEdgeStyle;rounded=0;orthogonalLoop=1;jettySize=auto;html=1;" edge="1" parent="WIyWlLk6GJQsqaUBKTNV-1" source="QZA1cioCUstiTLC9h7FH-27" target="QZA1cioCUstiTLC9h7FH-33">
          <mxGeometry relative="1" as="geometry" />
        </mxCell>
        <mxCell id="QZA1cioCUstiTLC9h7FH-37" value="" style="edgeStyle=orthogonalEdgeStyle;rounded=0;orthogonalLoop=1;jettySize=auto;html=1;" edge="1" parent="WIyWlLk6GJQsqaUBKTNV-1" source="QZA1cioCUstiTLC9h7FH-27" target="QZA1cioCUstiTLC9h7FH-36">
          <mxGeometry relative="1" as="geometry" />
        </mxCell>
        <mxCell id="QZA1cioCUstiTLC9h7FH-27" value="Which door?" style="rhombus;whiteSpace=wrap;html=1;rounded=0;" vertex="1" parent="WIyWlLk6GJQsqaUBKTNV-1">
          <mxGeometry x="1260" y="1700" width="80" height="80" as="geometry" />
        </mxCell>
        <mxCell id="QZA1cioCUstiTLC9h7FH-29" value="wait" style="text;html=1;align=center;verticalAlign=middle;resizable=0;points=[];autosize=1;strokeColor=none;fillColor=none;" vertex="1" parent="WIyWlLk6GJQsqaUBKTNV-1">
          <mxGeometry x="1300" y="1650" width="40" height="20" as="geometry" />
        </mxCell>
        <mxCell id="QZA1cioCUstiTLC9h7FH-30" value="Game over" style="whiteSpace=wrap;html=1;rounded=0;" vertex="1" parent="WIyWlLk6GJQsqaUBKTNV-1">
          <mxGeometry x="1080" y="1710" width="120" height="60" as="geometry" />
        </mxCell>
        <mxCell id="QZA1cioCUstiTLC9h7FH-32" value="red" style="text;html=1;align=center;verticalAlign=middle;resizable=0;points=[];autosize=1;strokeColor=none;fillColor=none;" vertex="1" parent="WIyWlLk6GJQsqaUBKTNV-1">
          <mxGeometry x="1205" y="1720" width="30" height="20" as="geometry" />
        </mxCell>
        <mxCell id="QZA1cioCUstiTLC9h7FH-33" value="Game over" style="rounded=0;whiteSpace=wrap;html=1;" vertex="1" parent="WIyWlLk6GJQsqaUBKTNV-1">
          <mxGeometry x="1400" y="1710" width="120" height="60" as="geometry" />
        </mxCell>
        <mxCell id="QZA1cioCUstiTLC9h7FH-35" value="blue" style="text;html=1;align=center;verticalAlign=middle;resizable=0;points=[];autosize=1;strokeColor=none;fillColor=none;" vertex="1" parent="WIyWlLk6GJQsqaUBKTNV-1">
          <mxGeometry x="1340" y="1720" width="40" height="20" as="geometry" />
        </mxCell>
        <mxCell id="QZA1cioCUstiTLC9h7FH-36" value="you Win!" style="whiteSpace=wrap;html=1;rounded=0;" vertex="1" parent="WIyWlLk6GJQsqaUBKTNV-1">
          <mxGeometry x="1240" y="1870" width="120" height="60" as="geometry" />
        </mxCell>
        <mxCell id="QZA1cioCUstiTLC9h7FH-38" value="Yellow" style="text;html=1;align=center;verticalAlign=middle;resizable=0;points=[];autosize=1;strokeColor=none;fillColor=none;" vertex="1" parent="WIyWlLk6GJQsqaUBKTNV-1">
          <mxGeometry x="1305" y="1820" width="50" height="20" as="geometry" />
        </mxCell>
      </root>
    </mxGraphModel>
  </diagram>
</mxfile>
